<svg aria-hidden="true" style="position: absolute; width: 0; height: 0; overflow: hidden;" version="1.1" xmlns="http://www.w3.org/2000/svg" xmlns:xlink="http://www.w3.org/1999/xlink">
<defs>
<symbol id="icon-instagram" viewBox="0 0 24 24">
<path d="M7 1c-1.657 0-3.158 0.673-4.243 1.757s-1.757 2.586-1.757 4.243v10c0 1.657 0.673 3.158 1.757 4.243s2.586 1.757 4.243 1.757h10c1.657 0 3.158-0.673 4.243-1.757s1.757-2.586 1.757-4.243v-10c0-1.657-0.673-3.158-1.757-4.243s-2.586-1.757-4.243-1.757zM7 3h10c1.105 0 2.103 0.447 2.828 1.172s1.172 1.723 1.172 2.828v10c0 1.105-0.447 2.103-1.172 2.828s-1.723 1.172-2.828 1.172h-10c-1.105 0-2.103-0.447-2.828-1.172s-1.172-1.723-1.172-2.828v-10c0-1.105 0.447-2.103 1.172-2.828s1.723-1.172 2.828-1.172zM16.989 11.223c-0.15-0.972-0.571-1.857-1.194-2.567-0.754-0.861-1.804-1.465-3.009-1.644-0.464-0.074-0.97-0.077-1.477-0.002-1.366 0.202-2.521 0.941-3.282 1.967s-1.133 2.347-0.93 3.712 0.941 2.521 1.967 3.282 2.347 1.133 3.712 0.93 2.521-0.941 3.282-1.967 1.133-2.347 0.93-3.712zM15.011 11.517c0.122 0.82-0.1 1.609-0.558 2.227s-1.15 1.059-1.969 1.18-1.609-0.1-2.227-0.558-1.059-1.15-1.18-1.969 0.1-1.609 0.558-2.227 1.15-1.059 1.969-1.18c0.313-0.046 0.615-0.042 0.87-0.002 0.74 0.11 1.366 0.47 1.818 0.986 0.375 0.428 0.63 0.963 0.72 1.543zM17.5 7.5c0.552 0 1-0.448 1-1s-0.448-1-1-1-1 0.448-1 1 0.448 1 1 1z"></path>
</symbol>
<symbol id="icon-facebook" viewBox="0 0 24 24">
<path d="M12-0.026c-6.631 0-12.026 5.394-12.026 12.025s5.396 12.026 12.026 12.026 12.026-5.394 12.026-12.026-5.395-12.025-12.026-12.025zM12 23.224c-6.189 0-11.224-5.035-11.224-11.224s5.035-11.224 11.224-11.224 11.224 5.036 11.224 11.224-5.035 11.224-11.224 11.224zM14.625 5.25h-2.001c-2.548-0.026-2.874 1.552-2.874 3.259v1.241h-1.125c-0.221-0.025-0.401 0.154-0.375 0.375v2.25c-0.026 0.221 0.154 0.4 0.375 0.375h1.125v5.625c-0.023 0.221 0.156 0.401 0.377 0.375h2.291c0.221 0.026 0.4-0.154 0.33-0.375l0.002-5.625h1.875c0.221 0.025 0.401-0.154 0.375-0.375v-2.25c0.026-0.221-0.154-0.401-0.375-0.375h-1.877l0.002-1.125c0.073-0.479 0.073-0.401 0.518-0.375h1.342c0.104-0.023 0.215-0.011 0.293-0.086s0.123-0.179 0.097-0.289v-2.25c0.027-0.221-0.153-0.401-0.374-0.375zM14.224 7.458l-0.941-0.036c-1.165 0-1.262 0.632-1.262 1.279l-0.003 1.422c0 0.107 0.042 0.209 0.117 0.284s0.177 0.117 0.284 0.117h1.831v1.449h-1.83c-0.221 0-0.4 0.179-0.401 0.401l-0.001 5.626h-1.518v-5.625c0-0.221-0.151-0.401-0.373-0.401h-1.127v-1.449h1.127c0.106 0 0.209-0.042 0.284-0.117s0.088-0.178 0.088-0.284v-1.616c0-1.681 0.34-2.483 2.124-2.483h1.6v1.433z"></path>
</symbol>
<symbol id="icon-linkedin" viewBox="0 0 24 24">
<path d="M14.636 8.964c-0.509 0-0.885 0.128-1.18 0.29-0.047-0.168-0.202-0.291-0.385-0.254h-2.238c-0.221-0.037-0.4 0.143-0.332 0.375v8.25c-0.068 0.21 0.111 0.39 0.332 0.375h2.238c0.221 0.015 0.4-0.165 0.4-0.386l-0.001-4.986c-0.001-0.002-0.009-0.241 0.142-0.405 0.121-0.131 0.329-0.197 0.616-0.197 0.479 0 0.692 0.196 0.771 0.634v4.955c-0.079 0.221 0.101 0.401 0.322 0.386h2.359c0.221 0.015 0.4-0.165 0.321-0.386v-5.121c0.079-2.604-1.776-3.529-3.364-3.529zM17.279 17.25h-1.557v-4.591c0-0.886-0.572-1.435-1.492-1.435-0.521 0-0.926 0.153-1.205 0.454-0.388 0.42-0.358 0.953-0.274 1.071v4.5h-1.517v-7.485h1.437v0.252c0 0.152 0.086 0.293 0.223 0.359s0.3 0.050 0.421-0.042l0.105-0.081c0.304-0.239 0.618-0.488 1.216-0.488 0.62 0 2.642 0.197 2.642 2.728v4.756zM8.25 5.224c-0.841 0-1.525 0.684-1.525 1.526s0.684 1.525 1.525 1.525 1.525-0.684 1.525-1.525-0.684-1.526-1.525-1.526zM8.25 7.474c-0.399 0-0.724-0.325-0.724-0.724s0.325-0.724 0.724-0.724 0.724 0.325 0.724 0.724-0.325 0.724-0.724 0.724zM9.321 8.963h-2.226c-0.221 0-0.401 0.179-0.345 0.412v8.25c-0.056 0.21 0.124 0.39 0.345 0.375h2.226c0.221 0.015 0.4-0.165 0.4-0.386v-8.25c0-0.221-0.179-0.401-0.4-0.401zM9 17.25h-1.505v-7.485h1.505v7.485zM12-0.026c-6.632 0-12.025 5.394-12.025 12.025s5.394 12.026 12.025 12.026 12.026-5.394 12.026-12.026-5.394-12.025-12.026-12.025zM12 23.224c-6.189 0-11.224-5.035-11.224-11.224s5.036-11.224 11.224-11.224 11.224 5.036 11.224 11.224-5.035 11.224-11.224 11.224z"></path>
</symbol>
<symbol id="" viewBox="0 0 32 32">
<path d="M19 6h5v-6h-5c-3.86 0-7 3.14-7 7v3h-4v6h4v16h6v-16h5l1-6h-6v-3c0-0.542 0.458-1 1-1z"></path>
</symbol>
      <symbol id="icon-left" viewBox="0 0 32 32">
        <path d="M12.586 27.414l-10-10c-0.781-0.781-0.781-2.047 0-2.828l10-10c0.781-0.781 2.047-0.781 2.828 0s0.781 2.047 0 2.828l-6.586 6.586h19.172c1.105 0 2 0.895 2 2s-0.895 2-2 2h-19.172l6.586 6.586c0.39 0.39 0.586 0.902 0.586 1.414s-0.195 1.024-0.586 1.414c-0.781 0.781-2.047 0.781-2.828 0z"></path>
      </symbol>
      <symbol id="icon-circle-left" viewBox="0 0 32 32">
<path d="M16 32c8.837 0 16-7.163 16-16s-7.163-16-16-16-16 7.163-16 16 7.163 16 16 16zM16 3c7.18 0 13 5.82 13 13s-5.82 13-13 13-13-5.82-13-13 5.82-13 13-13z"></path>
<path d="M20.914 9.914l-2.829-2.829-8.914 8.914 8.914 8.914 2.828-2.828-6.086-6.086z"></path>
</symbol>
<symbol id="" viewBox="0 0 32 32">
<path d="M16 2.881c4.275 0 4.781 0.019 6.462 0.094 1.563 0.069 2.406 0.331 2.969 0.55 0.744 0.288 1.281 0.638 1.837 1.194 0.563 0.563 0.906 1.094 1.2 1.838 0.219 0.563 0.481 1.412 0.55 2.969 0.075 1.688 0.094 2.194 0.094 6.463s-0.019 4.781-0.094 6.463c-0.069 1.563-0.331 2.406-0.55 2.969-0.288 0.744-0.637 1.281-1.194 1.837-0.563 0.563-1.094 0.906-1.837 1.2-0.563 0.219-1.413 0.481-2.969 0.55-1.688 0.075-2.194 0.094-6.463 0.094s-4.781-0.019-6.463-0.094c-1.563-0.069-2.406-0.331-2.969-0.55-0.744-0.288-1.281-0.637-1.838-1.194-0.563-0.563-0.906-1.094-1.2-1.837-0.219-0.563-0.481-1.413-0.55-2.969-0.075-1.688-0.094-2.194-0.094-6.463s0.019-4.781 0.094-6.463c0.069-1.563 0.331-2.406 0.55-2.969 0.288-0.744 0.638-1.281 1.194-1.838 0.563-0.563 1.094-0.906 1.838-1.2 0.563-0.219 1.412-0.481 2.969-0.55 1.681-0.075 2.188-0.094 6.463-0.094zM16 0c-4.344 0-4.887 0.019-6.594 0.094-1.7 0.075-2.869 0.35-3.881 0.744-1.056 0.412-1.95 0.956-2.837 1.85-0.894 0.888-1.438 1.781-1.85 2.831-0.394 1.019-0.669 2.181-0.744 3.881-0.075 1.713-0.094 2.256-0.094 6.6s0.019 4.887 0.094 6.594c0.075 1.7 0.35 2.869 0.744 3.881 0.413 1.056 0.956 1.95 1.85 2.837 0.887 0.887 1.781 1.438 2.831 1.844 1.019 0.394 2.181 0.669 3.881 0.744 1.706 0.075 2.25 0.094 6.594 0.094s4.888-0.019 6.594-0.094c1.7-0.075 2.869-0.35 3.881-0.744 1.050-0.406 1.944-0.956 2.831-1.844s1.438-1.781 1.844-2.831c0.394-1.019 0.669-2.181 0.744-3.881 0.075-1.706 0.094-2.25 0.094-6.594s-0.019-4.887-0.094-6.594c-0.075-1.7-0.35-2.869-0.744-3.881-0.394-1.063-0.938-1.956-1.831-2.844-0.887-0.887-1.781-1.438-2.831-1.844-1.019-0.394-2.181-0.669-3.881-0.744-1.712-0.081-2.256-0.1-6.6-0.1v0z"></path>
<path d="M16 7.781c-4.537 0-8.219 3.681-8.219 8.219s3.681 8.219 8.219 8.219 8.219-3.681 8.219-8.219c0-4.537-3.681-8.219-8.219-8.219zM16 21.331c-2.944 0-5.331-2.387-5.331-5.331s2.387-5.331 5.331-5.331c2.944 0 5.331 2.387 5.331 5.331s-2.387 5.331-5.331 5.331z"></path>
<path d="M26.462 7.456c0 1.060-0.859 1.919-1.919 1.919s-1.919-0.859-1.919-1.919c0-1.060 0.859-1.919 1.919-1.919s1.919 0.859 1.919 1.919z"></path>
</symbol>
</defs>
</svg>
